<svg width="24" height="24" viewBox="0 0 24 24" fill="none" xmlns="http://www.w3.org/2000/svg">
<path fill-rule="evenodd" clip-rule="evenodd" d="M1.77399 0C0.794682 0 0.000244141 0.767169 0.000244141 1.71231V22.1922C0.000244141 23.1375 0.794775 23.904 1.77399 23.904H22.2265C23.2062 23.904 24.0002 23.1374 24.0002 22.192V1.71231C24.0002 0.767169 23.2062 0 22.2265 0H1.77399ZM7.29363 9.24283V20.0045H3.70225V9.24283H7.29363ZM7.53034 5.91467C7.53034 6.9474 6.75081 7.77377 5.49869 7.77377L5.49841 7.77367H5.47516C4.26981 7.77367 3.49056 6.9473 3.49056 5.91458C3.49056 4.85841 4.29334 4.05511 5.5225 4.05511C6.75081 4.05511 7.50691 4.85841 7.53034 5.91467ZM12.8726 20.0045H9.2815L9.28141 20.0049C9.28141 20.0049 9.32856 10.2528 9.28169 9.24321H12.8729V10.7665C13.3503 10.0333 14.2047 8.99053 16.1096 8.99053C18.4724 8.99053 20.2439 10.5287 20.2439 13.8341V20.0045H16.6529V14.2479C16.6529 12.8011 16.1328 11.8143 14.8337 11.8143C13.8413 11.8143 13.2504 12.4798 12.9909 13.1227C12.896 13.3521 12.8726 13.6741 12.8726 13.9953V20.0045Z" fill="#1D457F"/>
</svg>
