<svg width="20" height="16" viewBox="0 0 20 16" fill="none" xmlns="http://www.w3.org/2000/svg">
<path d="M20.0002 -0.000999451C19.2202 0.462001 17.6552 1.093 16.7352 1.275C16.7082 1.282 16.6862 1.291 16.6602 1.298C15.8472 0.496 14.7332 -0.000999451 13.5002 -0.000999451C11.0152 -0.000999451 9.00024 2.014 9.00024 4.499C9.00024 4.63 8.98924 4.871 9.00024 4.999C5.64724 4.999 3.09524 3.243 1.26524 0.999001C1.06624 1.499 0.979244 2.289 0.979244 3.031C0.979244 4.432 2.07424 5.808 3.77924 6.661C3.46524 6.742 3.11924 6.8 2.75924 6.8C2.17824 6.8 1.56324 6.647 1.00024 6.183C1.00024 6.2 1.00024 6.216 1.00024 6.234C1.00024 8.192 3.07824 9.525 4.92624 9.896C4.55124 10.117 3.79524 10.139 3.42624 10.139C3.16624 10.139 2.24624 10.02 2.00024 9.974C2.51424 11.579 4.36824 12.481 6.13524 12.513C4.75324 13.597 3.79424 13.999 0.964244 13.999H0.000244141C1.78824 15.145 4.06524 16 6.34724 16C13.7772 16 18.0002 10.337 18.0002 4.999C18.0002 4.913 17.9982 4.733 17.9952 4.552C17.9952 4.534 18.0002 4.517 18.0002 4.499C18.0002 4.472 17.9922 4.446 17.9922 4.419C17.9892 4.283 17.9862 4.156 17.9832 4.09C18.7732 3.52 19.4582 2.809 20.0002 1.999C19.2752 2.321 18.4972 2.537 17.6802 2.635C18.5142 2.135 19.6992 0.943001 20.0002 -0.000999451Z" fill="#1D457F"/>
</svg>
